<svg version="1.2" baseProfile="tiny" xmlns="http://www.w3.org/2000/svg" viewBox="0 0 113.4 113.4"><path fill="#F8F8F8" d="M113.4 56.7c0 31.3-25.4 56.7-56.7 56.7s-56.7-25.4-56.7-56.7 25.4-56.7 56.7-56.7 56.7 25.4 56.7 56.7zm-56.4-30.9c-4.6 0-8.8.8-12.9 2.6-4.1 1.7-7.5 4.1-10.5 7.1s-5.3 6.5-7.1 10.5c-1.7 4-2.5 8.2-2.5 12.8 0 3.7.6 7.2 1.7 10.4 1.1 3.3 2.7 6.4 4.7 9 2 2.8 4.4 5.1 7.2 7.1s5.8 3.6 9 4.7c.8.1 1.4 0 1.7-.4.4-.4.6-.8.6-1.2v-2c0-1 0-2.2-.1-3.6-4.6 1-7.5.5-8.9-1.5-1.4-1.9-2.1-2.9-2.1-2.9-.7-1.9-1.6-3.1-2.4-3.8-.8-.6-1.3-1-1.3-1-1.5-1-1.8-1.7-1-1.8.8-.2 1.3-.3 1.3-.3 1.7.1 2.9.7 3.8 1.8.8 1.1 1.3 1.7 1.3 1.7 1.5 2.6 3.2 3.8 5.2 3.6 2-.1 3.5-.4 4.4-.8.2-1.1.5-1.9.8-2.7.4-.7.8-1.3 1.3-1.7-1.8-.2-3.7-.6-5.5-1.1-1.8-.6-3.4-1.4-4.9-2.6-1.4-1.2-2.6-2.8-3.4-4.8-.9-2-1.3-4.6-1.3-7.8 0-1.8.3-3.4.9-4.9.6-1.5 1.5-2.8 2.5-4-.2-.5-.4-1.5-.6-3-.3-1.6 0-3.5.9-5.8 0 0 .7 0 2.2.1 1.5.1 3.8 1.2 6.9 3.3 1.3-.4 2.7-.6 4.1-.8 1.4-.2 2.8-.3 4.1-.3s2.9.1 4.2.3c1.4.2 2.8.5 4.1.8 3.1-2.1 5.4-3.2 6.9-3.3 1.5-.1 2.1-.1 2.1-.1.9 2.3 1.2 4.2 1 5.8-.3 1.6-.5 2.6-.6 3 1 1.2 1.8 2.5 2.5 4 .6 1.5.9 3.1.9 4.9 0 3.2-.5 5.8-1.3 7.8-.9 2-2 3.6-3.4 4.8-1.4 1.2-3 2-4.9 2.6s-3.6.9-5.5 1.1c.6.5 1.1 1.2 1.6 2.3.5 1 .6 2.3.6 3.9v9c0 .5.2.8.6 1.2s.9.5 1.8.4c3.2-1.1 6.3-2.6 9-4.6 2.8-2 5.2-4.4 7.2-7.1 2-2.8 3.6-5.7 4.7-9s1.7-6.8 1.7-10.4c0-4.6-.8-8.8-2.6-12.9s-4.1-7.5-7.1-10.5c-3-2.9-6.5-5.3-10.5-7.1-4.3-1.9-8.5-2.8-13.1-2.8z"/></svg>