<svg version="1.2" baseProfile="tiny" xmlns="http://www.w3.org/2000/svg" viewBox="0 0 113.4 113.4"><path fill="#F8F8F8" d="M56.7 0c-31.3 0-56.7 25.4-56.7 56.7s25.4 56.7 56.7 56.7 56.7-25.4 56.7-56.7-25.4-56.7-56.7-56.7zm7.7 66.7c-1.1 2.9-2.6 5.4-4.7 7.4s-4.4 3.7-7.3 4.9c-2.8 1.1-6 1.8-9.4 1.8s-6.4-.6-9.4-1.9c-2.9-1.2-5.5-3-7.6-5.1s-3.9-4.8-5.1-7.7c-1.3-2.9-1.9-6.1-1.9-9.4s.6-6.4 1.9-9.3c1.2-2.9 3-5.5 5.1-7.7s4.7-3.9 7.6-5.1c2.9-1.2 6-1.9 9.4-1.9 3.3 0 6.2.5 8.9 1.7 2.7 1.1 5.1 2.6 7.2 4.6l-6.4 6.3c-.9-.9-2.1-1.8-3.7-2.6s-3.5-1.2-5.8-1.2c-2 0-4 .4-5.7 1.2-1.8.8-3.4 1.9-4.7 3.3-1.3 1.3-2.4 2.9-3.2 4.8-.8 1.9-1.1 3.8-1.1 5.9 0 2.1.4 4.1 1.1 5.9.8 1.9 1.9 3.4 3.2 4.8 1.3 1.3 2.9 2.5 4.7 3.3s3.7 1.2 5.7 1.2c4.8 0 8.1-1.3 10.2-3.9 2-2.6 3.2-4.8 3.4-6.5h-13.8v-8.2h22.6c.2.6.3 1.2.4 1.9.1.6.1 1.3.1 2.1 0 3.4-.6 6.5-1.7 9.4zm23.1-6.6v6.9h-6.9v-6.9h-6.9v-6.9h6.9v-6.9h6.9v6.9h6.9v6.9h-6.9z"/></svg>