<?xml version="1.0" encoding="utf-8"?>
<!-- Generator: Adobe Illustrator 21.1.0, SVG Export Plug-In . SVG Version: 6.00 Build 0)  -->
<svg version="1.2" baseProfile="tiny" id="レイヤー_1"
	 xmlns="http://www.w3.org/2000/svg" xmlns:xlink="http://www.w3.org/1999/xlink" x="0px" y="0px" viewBox="0 0 113.4 113.4"
	 xml:space="preserve">
<path fill="#F8F8F8" d="M56.7,0C25.4,0,0,25.4,0,56.7s25.4,56.7,56.7,56.7s56.7-25.4,56.7-56.7S88,0,56.7,0z M64.4,66.7
	c-1.1,2.9-2.6,5.4-4.7,7.4s-4.4,3.7-7.3,4.9c-2.8,1.1-6,1.8-9.4,1.8s-6.4-0.6-9.4-1.9c-2.9-1.2-5.5-3-7.6-5.1s-3.9-4.8-5.1-7.7
	C19.6,63.2,19,60,19,56.7s0.6-6.4,1.9-9.3c1.2-2.9,3-5.5,5.1-7.7s4.7-3.9,7.6-5.1c2.9-1.2,6-1.9,9.4-1.9c3.3,0,6.2,0.5,8.9,1.7
	c2.7,1.1,5.1,2.6,7.2,4.6l-6.4,6.3c-0.9-0.9-2.1-1.8-3.7-2.6s-3.5-1.2-5.8-1.2c-2,0-4,0.4-5.7,1.2c-1.8,0.8-3.4,1.9-4.7,3.3
	c-1.3,1.3-2.4,2.9-3.2,4.8c-0.8,1.9-1.1,3.8-1.1,5.9c0,2.1,0.4,4.1,1.1,5.9c0.8,1.9,1.9,3.4,3.2,4.8c1.3,1.3,2.9,2.5,4.7,3.3
	s3.7,1.2,5.7,1.2c4.8,0,8.1-1.3,10.2-3.9c2-2.6,3.2-4.8,3.4-6.5H43v-8.2h22.6c0.2,0.6,0.3,1.2,0.4,1.9c0.1,0.6,0.1,1.3,0.1,2.1
	C66.1,60.7,65.5,63.8,64.4,66.7z M87.5,60.1V67h-6.9v-6.9h-6.9v-6.9h6.9v-6.9h6.9v6.9h6.9v6.9H87.5z"/>
</svg>
