<svg xmlns="http://www.w3.org/2000/svg"><symbol id="github" viewBox="0 0 32 32"><path d="M32 16c0 8.832-7.168 16-16 16s-16-7.168-16-16 7.168-16 16-16 16 7.168 16 16zM16.085 7.28c-1.298 0-2.483 0.226-3.64 0.734-1.157 0.48-2.116 1.157-2.963 2.004s-1.496 1.834-2.004 2.963c-0.48 1.129-0.705 2.314-0.705 3.612 0 1.044 0.169 2.032 0.48 2.935 0.31 0.931 0.762 1.806 1.326 2.54 0.564 0.79 1.242 1.439 2.032 2.004s1.637 1.016 2.54 1.326c0.226 0.028 0.395 0 0.48-0.113 0.113-0.113 0.169-0.226 0.169-0.339v-0.564c0-0.282 0-0.621-0.028-1.016-1.298 0.282-2.116 0.141-2.511-0.423-0.395-0.536-0.593-0.818-0.593-0.818-0.198-0.536-0.451-0.875-0.677-1.072-0.226-0.169-0.367-0.282-0.367-0.282-0.423-0.282-0.508-0.48-0.282-0.508 0.226-0.056 0.367-0.085 0.367-0.085 0.48 0.028 0.818 0.198 1.072 0.508 0.226 0.31 0.367 0.48 0.367 0.48 0.423 0.734 0.903 1.072 1.467 1.016 0.564-0.028 0.988-0.113 1.242-0.226 0.056-0.31 0.141-0.536 0.226-0.762 0.113-0.198 0.226-0.367 0.367-0.48-0.508-0.056-1.044-0.169-1.552-0.31-0.508-0.169-0.959-0.395-1.383-0.734-0.395-0.339-0.734-0.79-0.959-1.355-0.254-0.564-0.367-1.298-0.367-2.201 0-0.508 0.085-0.959 0.254-1.383s0.423-0.79 0.705-1.129c-0.056-0.141-0.113-0.423-0.169-0.847-0.085-0.451 0-0.988 0.254-1.637 0 0 0.198 0 0.621 0.028s1.072 0.339 1.947 0.931c0.367-0.113 0.762-0.169 1.157-0.226s0.79-0.085 1.157-0.085 0.818 0.028 1.185 0.085c0.395 0.056 0.79 0.141 1.157 0.226 0.875-0.593 1.524-0.903 1.947-0.931l0.593-0.028c0.254 0.649 0.339 1.185 0.282 1.637-0.085 0.451-0.141 0.734-0.169 0.847 0.282 0.339 0.508 0.705 0.705 1.129 0.169 0.423 0.254 0.875 0.254 1.383 0 0.903-0.141 1.637-0.367 2.201-0.254 0.564-0.564 1.016-0.959 1.355s-0.847 0.564-1.383 0.734-1.016 0.254-1.552 0.31c0.169 0.141 0.31 0.339 0.451 0.649 0.141 0.282 0.169 0.649 0.169 1.101v2.54c0 0.141 0.056 0.226 0.169 0.339s0.254 0.141 0.508 0.113c0.903-0.31 1.778-0.734 2.54-1.298 0.79-0.564 1.467-1.242 2.032-2.004 0.564-0.79 1.016-1.608 1.326-2.54s0.48-1.919 0.48-2.935c0-1.298-0.226-2.483-0.734-3.64s-1.157-2.116-2.004-2.963c-0.847-0.818-1.834-1.496-2.963-2.004-1.213-0.536-2.399-0.79-3.697-0.79z"></path></symbol><symbol id="google-plus" viewBox="0 0 32 32"><path d="M16 0c-8.832 0-16 7.168-16 16s7.168 16 16 16 16-7.168 16-16-7.168-16-16-16zM18.173 18.822c-0.31 0.818-0.734 1.524-1.326 2.088s-1.242 1.044-2.060 1.383c-0.79 0.31-1.693 0.508-2.653 0.508s-1.806-0.169-2.653-0.536c-0.818-0.339-1.552-0.847-2.145-1.439s-1.101-1.355-1.439-2.173c-0.367-0.818-0.536-1.721-0.536-2.653s0.169-1.806 0.536-2.624c0.339-0.818 0.847-1.552 1.439-2.173s1.326-1.101 2.145-1.439c0.818-0.339 1.693-0.536 2.653-0.536 0.931 0 1.75 0.141 2.511 0.48 0.762 0.31 1.439 0.734 2.032 1.298l-1.806 1.778c-0.254-0.254-0.593-0.508-1.044-0.734s-0.988-0.339-1.637-0.339c-0.564 0-1.129 0.113-1.608 0.339-0.508 0.226-0.959 0.536-1.326 0.931-0.367 0.367-0.677 0.818-0.903 1.354s-0.31 1.072-0.31 1.665c0 0.593 0.113 1.157 0.31 1.665 0.226 0.536 0.536 0.959 0.903 1.355 0.367 0.367 0.818 0.705 1.326 0.931s1.044 0.339 1.608 0.339c1.354 0 2.286-0.367 2.878-1.101 0.564-0.734 0.903-1.355 0.959-1.834h-3.894v-2.314h6.377c0.056 0.169 0.085 0.339 0.113 0.536 0.028 0.169 0.028 0.367 0.028 0.593 0 0.959-0.169 1.834-0.48 2.653zM24.691 16.959v1.947h-1.947v-1.947h-1.947v-1.947h1.947v-1.947h1.947v1.947h1.947v1.947h-1.947z"></path></symbol><symbol id="last-fm" viewBox="0 0 32 32"><path d="M32 16c0 8.832-7.168 16-16 16s-16-7.168-16-16 7.168-16 16-16 16 7.168 16 16zM14.702 20.882l-0.818-2.258-0.931 0.762c-0.621 0.48-1.439 0.762-2.399 0.762-0.875 0-1.637-0.367-2.201-1.101s-0.847-1.721-0.847-2.963c0-1.58 0.339-2.709 1.016-3.33 0.677-0.649 1.411-0.959 2.173-0.959 1.129 0 1.947 0.339 2.427 0.988s0.875 1.439 1.157 2.399l0.79 2.568c0.198 0.621 0.48 1.213 0.79 1.75s0.762 1.044 1.27 1.439c0.508 0.423 1.157 0.734 1.947 0.959s1.721 0.367 2.822 0.367c1.608 0 2.907-0.254 3.894-0.79s1.467-1.439 1.467-2.737c0-1.044-0.282-1.834-0.875-2.427s-1.439-0.988-2.54-1.242l-1.665-0.367c-0.564-0.141-0.959-0.282-1.157-0.536-0.198-0.226-0.31-0.564-0.31-0.959 0-0.451 0.169-0.79 0.48-1.016s0.79-0.367 1.355-0.367c0.621 0 1.101 0.141 1.439 0.367 0.339 0.254 0.508 0.649 0.564 1.213l2.596-0.31c-0.141-1.157-0.564-2.032-1.326-2.511-0.79-0.508-1.806-0.762-3.132-0.762-1.157 0-2.201 0.254-3.16 0.79-0.931 0.508-1.439 1.467-1.439 2.907 0 0.875 0.226 1.608 0.677 2.145s1.213 0.959 2.286 1.242l1.75 0.423c0.649 0.169 1.101 0.367 1.355 0.621s0.395 0.593 0.395 0.988c0 0.48-0.226 0.79-0.677 1.016-0.451 0.198-1.101 0.31-2.004 0.31-1.298 0-2.286-0.31-2.907-0.903s-1.101-1.411-1.411-2.342l-0.818-2.568c-0.282-0.818-0.593-1.552-0.959-2.116s-0.79-1.072-1.298-1.439c-0.48-0.367-1.101-0.621-1.75-0.79s-1.439-0.226-2.286-0.226c-0.931-0.028-1.75 0.141-2.455 0.423-0.734 0.282-1.298 0.734-1.778 1.27s-0.847 1.213-1.101 2.032c-0.254 0.79-0.367 1.721-0.367 2.709s0.141 1.834 0.367 2.624c0.254 0.762 0.621 1.383 1.101 1.891s1.072 0.875 1.75 1.157c0.705 0.254 1.496 0.395 2.399 0.395 1.439 0 2.54-0.226 3.245-0.677 0.734-0.536 1.101-0.79 1.101-0.818z"></path></symbol><symbol id="mail" viewBox="0 0 32 32"><path d="M8.183 11.965v8.494l4.797-4.289zM17.891 17.157l-1.383 1.213c-0.282 0.254-0.705 0.254-1.016 0l-1.354-1.185-4.515 4.035h12.811l-4.543-4.064zM22.547 11.062h-13.093l6.547 5.728zM23.817 20.43v-8.466l-4.769 4.176zM16 0c-8.832 0-16 7.168-16 16s7.168 16 16 16 16-7.168 16-16-7.168-16-16-16zM25.34 22.011c0 0.423-0.339 0.762-0.762 0.762h-17.157c-0.423 0-0.762-0.339-0.762-0.762v-12.021c0-0.423 0.339-0.762 0.762-0.762h17.185c0.423 0 0.762 0.339 0.762 0.762l-0.028 12.021z"></path></symbol><symbol id="twitter" viewBox="0 0 32 32"><path d="M32 16c0 8.832-7.168 16-16 16s-16-7.168-16-16 7.168-16 16-16 16 7.168 16 16zM25.115 10.328c-0.339 0.141-0.677 0.282-1.044 0.395s-0.734 0.169-1.129 0.226c0.395-0.226 0.734-0.536 1.016-0.903s0.508-0.762 0.649-1.185c-0.367 0.226-0.762 0.395-1.157 0.564-0.395 0.141-0.818 0.282-1.242 0.367-0.339-0.367-0.734-0.649-1.213-0.875s-0.988-0.31-1.524-0.31-1.016 0.085-1.467 0.282-0.847 0.451-1.185 0.818-0.621 0.734-0.818 1.185-0.282 0.931-0.282 1.467c0 0.141 0 0.31 0.028 0.451l0.056 0.423c-0.762-0.028-1.524-0.141-2.258-0.339s-1.439-0.451-2.088-0.818-1.27-0.734-1.834-1.213c-0.564-0.451-1.101-0.988-1.552-1.552-0.141 0.282-0.282 0.564-0.367 0.903-0.085 0.31-0.141 0.649-0.141 0.988 0 0.649 0.141 1.27 0.452 1.806s0.705 0.988 1.213 1.326c-0.31 0-0.621-0.056-0.903-0.141s-0.564-0.198-0.818-0.31v0.028c0 0.903 0.282 1.693 0.875 2.399 0.564 0.677 1.298 1.129 2.145 1.298-0.169 0.056-0.339 0.085-0.48 0.113-0.169 0.028-0.339 0.028-0.508 0.028-0.113 0-0.226 0-0.339-0.028-0.113 0-0.226-0.028-0.339-0.056 0.226 0.734 0.677 1.355 1.326 1.834s1.383 0.734 2.201 0.762c-0.649 0.508-1.354 0.903-2.145 1.185s-1.637 0.423-2.511 0.423c-0.141 0-0.282 0-0.452-0.028l-0.452-0.028c0.423 0.254 0.847 0.508 1.298 0.705s0.931 0.395 1.411 0.536 0.988 0.254 1.496 0.339 1.016 0.113 1.552 0.113c1.721 0 3.245-0.339 4.571-0.988s2.455-1.496 3.358-2.511c0.903-1.016 1.58-2.173 2.060-3.443s0.705-2.511 0.705-3.753v-0.254s0-0.169-0.028-0.254c0.367-0.254 0.705-0.564 1.016-0.875s0.593-0.677 0.847-1.101z"></path></symbol></svg>