<svg version="1.2" baseProfile="tiny" xmlns="http://www.w3.org/2000/svg" viewBox="0 0 113.4 113.4"><path fill="#F8F8F8" d="M113.4 56.7c0 31.3-25.4 56.7-56.7 56.7s-56.7-25.4-56.7-56.7 25.4-56.7 56.7-56.7 56.7 25.4 56.7 56.7zm-61.3 17.3l-2.9-8-3.3 2.7c-2.2 1.7-5.1 2.7-8.5 2.7-3.1 0-5.8-1.3-7.8-3.9-2-2.6-3-6.1-3-10.5 0-5.6 1.2-9.6 3.6-11.8 2.4-2.3 5-3.4 7.7-3.4 4 0 6.9 1.2 8.6 3.5 1.7 2.3 3.1 5.1 4.1 8.5l2.8 9.1c.7 2.2 1.7 4.3 2.8 6.2 1.1 1.9 2.7 3.7 4.5 5.1 1.8 1.5 4.1 2.6 6.9 3.4 2.8.8 6.1 1.3 10 1.3 5.7 0 10.3-.9 13.8-2.8s5.2-5.1 5.2-9.7c0-3.7-1-6.5-3.1-8.6-2.1-2.1-5.1-3.5-9-4.4l-5.9-1.3c-2-.5-3.4-1-4.1-1.9-.7-.8-1.1-2-1.1-3.4 0-1.6.6-2.8 1.7-3.6 1.1-.8 2.8-1.3 4.8-1.3 2.2 0 3.9.5 5.1 1.3 1.2.9 1.8 2.3 2 4.3l9.2-1.1c-.5-4.1-2-7.2-4.7-8.9-2.8-1.8-6.4-2.7-11.1-2.7-4.1 0-7.8.9-11.2 2.8-3.3 1.8-5.1 5.2-5.1 10.3 0 3.1.8 5.7 2.4 7.6 1.6 1.9 4.3 3.4 8.1 4.4l6.2 1.5c2.3.6 3.9 1.3 4.8 2.2.9.9 1.4 2.1 1.4 3.5 0 1.7-.8 2.8-2.4 3.6-1.6.7-3.9 1.1-7.1 1.1-4.6 0-8.1-1.1-10.3-3.2-2.2-2.1-3.9-5-5-8.3l-2.9-9.1c-1-2.9-2.1-5.5-3.4-7.5-1.3-2-2.8-3.8-4.6-5.1-1.7-1.3-3.9-2.2-6.2-2.8-2.3-.6-5.1-.8-8.1-.8-3.3-.1-6.2.5-8.7 1.5-2.6 1-4.6 2.6-6.3 4.5-1.7 1.9-3 4.3-3.9 7.2-.9 2.8-1.3 6.1-1.3 9.6s.5 6.5 1.3 9.3c.9 2.7 2.2 4.9 3.9 6.7 1.7 1.8 3.8 3.1 6.2 4.1 2.5.9 5.3 1.4 8.5 1.4 5.1 0 9-.8 11.5-2.4 2.6-1.9 3.9-2.8 3.9-2.9z"/></svg>