<svg version="1.2" baseProfile="tiny" xmlns="http://www.w3.org/2000/svg" viewBox="0 0 113.4 113.4"><path fill="#F8F8F8" d="M113.4 56.7c0 31.3-25.4 56.7-56.7 56.7s-56.7-25.4-56.7-56.7 25.4-56.7 56.7-56.7 56.7 25.4 56.7 56.7zm-24.4-20.1c-1.2.5-2.4 1-3.7 1.4-1.3.4-2.6.6-4 .8 1.4-.8 2.6-1.9 3.6-3.2 1-1.3 1.8-2.7 2.3-4.2-1.3.8-2.7 1.4-4.1 2-1.4.5-2.9 1-4.4 1.3-1.2-1.3-2.6-2.3-4.3-3.1-1.7-.8-3.5-1.1-5.4-1.1-1.9 0-3.6.3-5.2 1s-3 1.6-4.2 2.9-2.2 2.6-2.9 4.2-1 3.3-1 5.2c0 .5 0 1.1.1 1.6l.2 1.5c-2.7-.1-5.4-.5-8-1.2-2.6-.7-5.1-1.6-7.4-2.9s-4.5-2.6-6.5-4.3c-2-1.6-3.9-3.5-5.5-5.5-.5 1-1 2-1.3 3.2-.3 1.1-.5 2.3-.5 3.5 0 2.3.5 4.5 1.6 6.4 1.1 1.9 2.5 3.5 4.3 4.7-1.1 0-2.2-.2-3.2-.5s-2-.7-2.9-1.1v.1c0 3.2 1 6 3.1 8.5 2 2.4 4.6 4 7.6 4.6-.6.2-1.2.3-1.7.4-.6.1-1.2.1-1.8.1-.4 0-.8 0-1.2-.1-.4 0-.8-.1-1.2-.2.8 2.6 2.4 4.8 4.7 6.5 2.3 1.7 4.9 2.6 7.8 2.7-2.3 1.8-4.8 3.2-7.6 4.2s-5.8 1.5-8.9 1.5c-.5 0-1 0-1.6-.1l-1.6-.1c1.5.9 3 1.8 4.6 2.5 1.6.7 3.3 1.4 5 1.9 1.7.5 3.5.9 5.3 1.2s3.6.4 5.5.4c6.1 0 11.5-1.2 16.2-3.5 4.7-2.3 8.7-5.3 11.9-8.9 3.2-3.6 5.6-7.7 7.3-12.2s2.5-8.9 2.5-13.3v-.9s0-.6-.1-.9c1.3-.9 2.5-2 3.6-3.1s2.1-2.4 3-3.8v-.1z"/></svg>