<?xml version="1.0" encoding="utf-8"?>
<!-- Generator: Adobe Illustrator 21.1.0, SVG Export Plug-In . SVG Version: 6.00 Build 0)  -->
<svg version="1.1" id="レイヤー_1" xmlns="http://www.w3.org/2000/svg" xmlns:xlink="http://www.w3.org/1999/xlink" x="0px"
	 y="0px" viewBox="0 0 259 259" style="enable-background:new 0 0 259 259;" xml:space="preserve">
<style type="text/css">
	.st0{fill:#010920;}
</style>
<g>
	<path class="st0" d="M105.9,55.3c-6.5,4.9-12.1,10.6-16.8,17.1c-4.7,6.5-9,13.6-12.8,21c-3.8,7.5-7.3,15.2-10.4,23.3
		c-3.1,8.1-6.1,16.1-9.2,24.3c-3,8.1-6.2,16-9.6,23.7c-3.4,7.7-7.3,14.9-11.8,21.7l0.4,0.4c4.5-4.2,9.3-8.8,14.6-14
		c5.2-5.2,10.6-10.6,16.2-16.2c5.5-5.6,11-11.3,16.5-17c5.5-5.7,10.7-11.4,15.6-16.8c5-5.5,9.5-10.7,13.7-15.6
		c4.2-5,7.6-9.4,10.4-13.3c0.9-1.3,2.2-3.2,4-5.8c1.8-2.6,3.8-5.4,5.9-8.5c2.2-3.1,4.5-6.3,7.1-9.6c2.6-3.3,5.2-6.3,7.8-8.9
		c2.6-2.7,5.1-4.9,7.5-6.6c2.4-1.7,4.7-2.6,6.7-2.6c0.7,0,1.4,0.3,1.9,0.8c0.6,0.5,0.9,1.3,0.9,2.3c0,0.9-0.4,1.8-1.1,2.9
		c-0.7,1.1-1.5,2.2-2.5,3.2c-0.9,1.1-2,2.1-3.1,3.1c-1.2,1-2.2,1.9-3,2.6c-6,5.3-11.1,11.2-15.1,17.6c-4,6.4-7.6,13.2-10.7,20.4
		c-3.1,7.2-5.9,14.6-8.3,22.1c-2.4,7.5-5.1,15.1-7.9,22.6c-2.8,7.5-6,15-9.5,22.2c-3.5,7.3-7.9,14.1-13.3,20.6l0.4,0.4
		c6.6-4.5,13.9-9.3,21.8-14.7c7.9-5.3,15.8-11,23.8-17.1c8-6.1,15.7-12.6,23.3-19.5s14.3-14.1,20.4-21.7c6-7.5,11.1-15.4,15.1-23.6
		c4-8.2,6.5-16.7,7.3-25.4c-1.6-0.9-2.8-2.1-3.6-3.8c-0.8-1.7-1.2-3.4-1.2-5.3c0-2.3,0.8-4.2,2.5-5.7c1.7-1.5,3.7-2.3,6.1-2.3
		c1.7,0,3.2,0.4,4.4,1.2c1.2,0.8,2.2,1.8,3,3c0.8,1.2,1.3,2.6,1.6,4.1c0.3,1.5,0.4,3,0.4,4.4c0,6.3-1.8,13-5.3,20.1
		c-3.5,7-8.1,14.1-13.7,21.1c-5.6,7-12,14.1-19.1,21c-7.1,7-14.3,13.5-21.6,19.5c-7.3,6-14.3,11.6-21,16.6
		c-6.8,5-12.6,9.2-17.5,12.5c-3.5,2.3-7.2,4.8-11.2,7.4c-4,2.7-7.9,5.3-11.8,8c-3.8,2.7-7.4,5.2-10.7,7.8c-3.3,2.5-6,4.8-8,6.8
		l-1.3-1.7c5.2-7.2,9.6-15,13.4-23.4c3.7-8.4,7.2-17.1,10.4-26.1c3.2-9,6.4-18,9.6-27.1s6.9-17.7,10.9-25.9l-0.4-0.2
		c-4.7,5.9-10.4,12.6-17,20.1C94.7,130.3,87.6,138,80,146c-7.6,8-15.4,15.9-23.4,23.7c-8,7.8-15.7,15.1-23.2,21.9
		c-2.2,2-4.1,4-5.7,5.8c-1.7,1.9-3.1,3.5-4.4,5c-1.3,1.4-2.6,2.6-3.8,3.5c-1.2,0.9-2.6,1.3-4.2,1.3c-2,0-3-0.7-3-2.2
		c0-0.9,0.5-1.7,1.5-2.6c1-0.9,2.2-1.8,3.5-2.8c1.3-1,2.6-2,3.8-2.9c1.2-0.9,2.1-1.9,2.7-2.9c4.2-7.2,7.7-14.7,10.7-22.6
		c2.9-7.9,5.7-15.8,8.3-23.8c2.6-8,5.3-16,8.2-23.9c2.9-8,6.3-15.7,10.2-23.2c4-7.5,8.8-14.6,14.4-21.5c5.7-6.8,12.7-13,21-18.7
		l-0.4-0.4c-4.7,2.2-10.3,4.2-16.6,6c-6.3,1.9-12.8,3.9-19.5,6.1C53.4,74,46.8,76.5,40.3,79S28.1,84.6,23,88
		c-5.1,3.4-9.2,7.3-12.3,11.6C7.6,104,6,109.1,6,114.8c0,5.3,1.4,9.4,4.3,12.3c2.9,2.9,6.6,4.3,11.2,4.3c3.3,0,6.3-0.6,9.1-1.9
		c2.7-1.3,5.1-3,7-5.2c1.9-2.2,3.4-4.6,4.4-7.3c1-2.7,1.5-5.5,1.5-8.2c0-0.9,0-1.7-0.1-2.6c-0.1-0.9-0.2-1.7-0.3-2.6h2.6
		c0.1,0.9,0.2,1.7,0.3,2.6c0.1,0.9,0.1,1.7,0.1,2.6c0,3.6-0.6,6.9-1.9,10c-1.3,3.1-3.1,5.8-5.3,8.1c-2.2,2.3-4.9,4.1-8,5.3
		c-3.1,1.2-6.4,1.8-10,1.8c-6,0-11-1.7-15-5.2C2,125.4,0,120.4,0,114s1.8-12,5.3-16.7c3.5-4.7,8.3-8.8,14.3-12.4
		c6-3.6,13.2-6.8,21.3-9.7c8.2-2.9,16.9-5.6,26.1-8.2c7.6-2.2,13.8-4,18.4-5.4c4.7-1.4,8.4-2.7,11.1-3.7c2.7-1,4.7-1.8,5.9-2.5
		c1.2-0.6,2-1.3,2.5-1.8L105.9,55.3z"/>
	<path class="st0" d="M196.9,171.4c-2.1,3.4-4.9,7.1-8.4,11c-3.5,3.9-7.2,7.6-11.3,11c-5,4.1-9.9,7.5-14.9,10
		c-5,2.5-9.9,3.8-14.6,3.8c-3.4,0-6.3-0.9-8.6-2.7c-2.3-1.8-3.5-4.4-3.5-7.9c0-4.4,1.3-8.9,3.8-13.5c2.5-4.6,5.7-8.8,9.5-12.6
		c3.8-3.8,8-6.9,12.6-9.3c4.6-2.4,8.9-3.6,12.9-3.6c2.7,0,5,0.5,7,1.4c2,1,3,2.6,3,5c0,1.1-0.3,2-0.9,2.8c-0.6,0.7-1.3,1.3-2.2,1.8
		c-0.9,0.5-1.8,0.8-2.9,1c-1.1,0.2-2,0.4-2.8,0.5c0.4-0.9,0.7-1.9,1-2.8c0.3-1,0.4-2,0.4-3c0-3.4-1.6-5.1-4.8-5.1
		c-2.4,0-5.2,1.2-8.5,3.5c-3.3,2.3-6.4,5.3-9.3,8.9c-2.9,3.6-5.4,7.5-7.4,11.9c-2,4.3-3,8.5-3,12.6c0,2.5,0.6,4.6,1.7,6.4
		c1.2,1.7,2.9,2.6,5.3,2.6c3.2,0,6.9-1.1,11.1-3.2c4.2-2.1,8.3-4.7,12.2-7.9c4.1-3.2,8.1-6.9,11.9-11.1c3.8-4.2,7-8.3,9.6-12.2
		L196.9,171.4z"/>
	<path class="st0" d="M212.1,158.5c-5.1,7.3-9.3,13.4-12.8,18.4c-3.5,5-6.3,9.1-8.5,12.4c-2.2,3.3-3.7,5.9-4.7,7.9
		c-1,1.9-1.4,3.5-1.4,4.7c0,2.4,1,3.6,2.9,3.6c1.8,0,4-0.7,6.4-2c2.4-1.3,5-3.1,7.7-5.2c2.7-2.1,5.3-4.5,8-7.2
		c2.7-2.7,5.2-5.3,7.5-7.9c2.3-2.6,4.4-5.2,6.2-7.6c1.8-2.4,3.1-4.4,3.9-6l1.1,0.7c-1.1,1.8-2.6,4.1-4.5,6.6c-1.9,2.6-4,5.2-6.4,7.9
		c-2.4,2.7-4.9,5.4-7.6,8.1c-2.7,2.7-5.4,5.1-8.1,7.2c-2.8,2.1-5.5,3.8-8.1,5.1c-2.6,1.3-5,1.9-7.2,1.9c-2.5,0-4.3-0.7-5.5-2.1
		c-1.2-1.4-1.8-2.9-1.8-4.6c0-1.9,0.4-4,1.3-6.1c0.9-2.2,2.3-4.8,4.2-7.9c1.9-3.1,4.4-6.9,7.5-11.4c3.1-4.5,6.8-10,11.1-16.5H212.1z
		"/>
	<path class="st0" d="M220.1,132.8c1.3,0,2.3,0.4,3.2,1.3c0.8,0.9,1.2,2,1.2,3.2c0,1.3-0.4,2.4-1.2,3.2c-0.8,0.9-1.9,1.3-3.2,1.3
		c-1.3,0-2.3-0.4-3.2-1.3c-0.8-0.9-1.2-2-1.2-3.2c0-1.3,0.4-2.4,1.2-3.2C217.7,133.3,218.8,132.8,220.1,132.8z"/>
	<path class="st0" d="M242.7,158.5c-5.1,7.3-9.3,13.4-12.8,18.4c-3.5,5-6.3,9.1-8.5,12.4c-2.2,3.3-3.7,5.9-4.7,7.9
		c-1,1.9-1.4,3.5-1.4,4.7c0,2.4,1,3.6,2.9,3.6c1.8,0,4-0.7,6.4-2c2.4-1.3,5-3.1,7.7-5.2c2.7-2.1,5.3-4.5,8-7.2
		c2.7-2.7,5.2-5.3,7.5-7.9c2.3-2.6,4.4-5.2,6.2-7.6c1.8-2.4,3.1-4.4,3.9-6l1.1,0.7c-1.1,1.8-2.6,4.1-4.5,6.6c-1.9,2.6-4,5.2-6.4,7.9
		c-2.4,2.7-4.9,5.4-7.6,8.1c-2.7,2.7-5.4,5.1-8.1,7.2c-2.8,2.1-5.5,3.8-8.1,5.1c-2.6,1.3-5,1.9-7.2,1.9c-2.5,0-4.3-0.7-5.5-2.1
		s-1.8-2.9-1.8-4.6c0-1.9,0.4-4,1.3-6.1c0.9-2.2,2.3-4.8,4.2-7.9c1.9-3.1,4.4-6.9,7.5-11.4c3.1-4.5,6.8-10,11.1-16.5H242.7z"/>
	<path class="st0" d="M250.7,132.8c1.3,0,2.3,0.4,3.2,1.3c0.8,0.9,1.2,2,1.2,3.2c0,1.3-0.4,2.4-1.2,3.2c-0.8,0.9-1.9,1.3-3.2,1.3
		c-1.3,0-2.3-0.4-3.2-1.3c-0.8-0.9-1.2-2-1.2-3.2c0-1.3,0.4-2.4,1.2-3.2C248.4,133.3,249.4,132.8,250.7,132.8z"/>
</g>
</svg>
