<svg xmlns="http://www.w3.org/2000/svg" viewBox="0 0 259 259" enable-background="new 0 0 259 259"><style type="text/css">.st0{fill:#010920;}</style><path class="st0" d="M90.6 7.1c-10.7 8.1-19.9 17.5-27.7 28.2s-14.8 22.4-21.1 34.6c-6.3 12.4-12 25.1-17.1 38.4s-10.1 26.5-15.2 40.1c-4.9 13.4-10.2 26.4-15.8 39.1-5.6 12.7-12 24.6-19.5 35.8l.7.7c7.4-6.9 15.3-14.5 24.1-23.1l26.7-26.7c9.1-9.2 18.1-18.6 27.2-28s17.6-18.8 25.7-27.7c8.2-9.1 15.7-17.6 22.6-25.7 6.9-8.2 12.5-15.5 17.1-21.9 1.5-2.1 3.6-5.3 6.6-9.6 3-4.3 6.3-8.9 9.7-14 3.6-5.1 7.4-10.4 11.7-15.8 4.3-5.4 8.6-10.4 12.9-14.7 4.3-4.5 8.4-8.1 12.4-10.9 4-2.8 7.7-4.3 11-4.3 1.2 0 2.3.5 3.1 1.3 1 .8 1.5 2.1 1.5 3.8 0 1.5-.7 3-1.8 4.8-1.2 1.8-2.5 3.6-4.1 5.3-1.5 1.8-3.3 3.5-5.1 5.1-2 1.6-3.6 3.1-4.9 4.3-9.9 8.7-18.3 18.5-24.9 29s-12.5 21.8-17.6 33.6c-5.1 11.9-9.7 24.1-13.7 36.4-4 12.4-8.4 24.9-13 37.3-4.6 12.4-9.9 24.7-15.7 36.6-5.8 12-13 23.2-21.9 34l.7.7c10.9-7.4 22.9-15.3 35.9-24.2 13-8.7 26-18.1 39.2-28.2 13.2-10.1 25.9-20.8 38.4-32.1 12.5-11.4 23.6-23.2 33.6-35.8 9.9-12.4 18.3-25.4 24.9-38.9 6.6-13.5 10.7-27.5 12-41.9-2.6-1.5-4.6-3.5-5.9-6.3-1.3-2.8-2-5.6-2-8.7 0-3.8 1.3-6.9 4.1-9.4s6.1-3.8 10.1-3.8c2.8 0 5.3.7 7.3 2s3.6 3 4.9 4.9c1.3 2 2.1 4.3 2.6 6.8s.7 4.9.7 7.3c0 10.4-3 21.4-8.7 33.1-5.8 11.5-13.4 23.2-22.6 34.8-9.2 11.5-19.8 23.2-31.5 34.6-11.7 11.5-23.6 22.3-35.6 32.1s-23.6 18.9-34.7 27.2c-11.2 8.2-20.8 15.2-28.9 20.6-5.8 3.8-11.9 7.9-18.5 12.2-6.6 4.5-13 8.7-19.5 13.2-6.3 4.5-12.2 8.6-17.6 12.9-5.4 4.1-9.9 7.9-13.2 11.2l-2.1-2.8c8.6-11.9 15.8-24.7 22.1-38.6 6.1-13.8 11.9-28.2 17.1-43 5.3-14.8 10.6-29.7 15.8-44.7 5.3-15 11.4-29.2 18-42.7l-.7-.3c-7.7 9.7-17.1 20.8-28 33.1-10.4 12.4-22.1 25.1-34.6 38.2s-25.4 26.2-38.6 39.1-25.9 24.9-38.2 36.1c-3.6 3.3-6.8 6.6-9.4 9.6-2.8 3.1-5.1 5.8-7.3 8.2-2.1 2.3-4.3 4.3-6.3 5.8s-4.3 2.1-6.9 2.1c-3.3 0-4.9-1.2-4.9-3.6 0-1.5.8-2.8 2.5-4.3 1.6-1.5 3.6-3 5.8-4.6 2.1-1.6 4.3-3.3 6.3-4.8s3.5-3.1 4.5-4.8c6.9-11.9 12.7-24.2 17.6-37.3 4.8-13 9.4-26 13.7-39.2 4.3-13.2 8.7-26.4 13.5-39.4 4.8-13.2 10.4-25.9 16.8-38.2 6.6-12.4 14.5-24.1 23.7-35.4 9.4-11.3 21-21.5 34.7-30.9l-.7-.7c-7.7 3.6-17 6.9-27.4 9.9-10.4 3.1-21.1 6.4-32.1 10.1-11.1 3.6-21.9 7.7-32.7 11.9s-20.1 9.2-28.5 14.8-15.2 12-20.3 19.1c-5.1 7.3-7.7 15.7-7.7 25.1 0 8.7 2.3 15.5 7.1 20.3 4.8 4.8 10.9 7.1 18.5 7.1 5.4 0 10.4-1 15-3.1 4.5-2.1 8.4-4.9 11.5-8.6 3.1-3.6 5.6-7.6 7.3-12 1.6-4.5 2.5-9.1 2.5-13.5 0-1.5 0-2.8-.2-4.3l-.5-4.3h4.3l.5 4.3c.1 1.4.1 2.7.1 4.2 0 5.9-1 11.4-3.1 16.5s-5.1 9.6-8.7 13.4c-3.6 3.8-8.1 6.8-13.2 8.7-5.1 2-10.6 3-16.5 3-9.9 0-18.1-2.8-24.7-8.6-6.4-5.6-9.7-13.8-9.7-24.4s3-19.8 8.7-27.5 13.7-14.5 23.6-20.4 21.8-11.2 35.1-16c13.5-4.8 27.9-9.2 43-13.5 12.5-3.6 22.8-6.6 30.3-8.9 7.7-2.3 13.8-4.5 18.3-6.1s7.7-3 9.7-4.1c2-1 3.3-2.1 4.1-3l1.7 2.7zM240.6 198.5c-3.5 5.6-8.1 11.7-13.8 18.1-5.8 6.4-11.9 12.5-18.6 18.1-8.2 6.8-16.3 12.4-24.6 16.5-8.2 4.1-16.3 6.3-24.1 6.3-5.6 0-10.4-1.5-14.2-4.5-3.8-3-5.8-7.3-5.8-13 0-7.3 2.1-14.7 6.3-22.3 4.1-7.6 9.4-14.5 15.7-20.8 6.3-6.3 13.2-11.4 20.8-15.3 7.6-4 14.7-5.9 21.3-5.9 4.5 0 8.2.8 11.5 2.3 3.3 1.6 4.9 4.3 4.9 8.2 0 1.8-.5 3.3-1.5 4.6-1 1.2-2.1 2.1-3.6 3-1.5.8-3 1.3-4.8 1.6-1.8.3-3.3.7-4.6.8.7-1.5 1.2-3.1 1.6-4.6.5-1.6.7-3.3.7-4.9 0-5.6-2.6-8.4-7.9-8.4-4 0-8.6 2-14 5.8s-10.6 8.7-15.3 14.7c-4.8 5.9-8.9 12.4-12.2 19.6-3.3 7.1-4.9 14-4.9 20.8 0 4.1 1 7.6 2.8 10.6 2 2.8 4.8 4.3 8.7 4.3 5.3 0 11.4-1.8 18.3-5.3s13.7-7.7 20.1-13c6.8-5.3 13.4-11.4 19.6-18.3 6.3-6.9 11.5-13.7 15.8-20.1l1.8 1.1zM265.7 177.2c-8.4 12-15.3 22.1-21.1 30.3-5.8 8.2-10.4 15-14 20.4-3.6 5.4-6.1 9.7-7.7 13-1.6 3.1-2.3 5.8-2.3 7.7 0 4 1.6 5.9 4.8 5.9 3 0 6.6-1.2 10.6-3.3 4-2.1 8.2-5.1 12.7-8.6s8.7-7.4 13.2-11.9 8.6-8.7 12.4-13c3.8-4.3 7.3-8.6 10.2-12.5 3-4 5.1-7.3 6.4-9.9l1.8 1.2c-1.8 3-4.3 6.8-7.4 10.9-3.1 4.3-6.6 8.6-10.6 13-4 4.5-8.1 8.9-12.5 13.4-4.5 4.5-8.9 8.4-13.4 11.9-4.6 3.5-9.1 6.3-13.4 8.4s-8.2 3.1-11.9 3.1c-4.1 0-7.1-1.2-9.1-3.5s-3-4.8-3-7.6c0-3.1.7-6.6 2.1-10.1 1.5-3.6 3.8-7.9 6.9-13 3.1-5.1 7.3-11.4 12.4-18.8 5.1-7.4 11.2-16.5 18.3-27.2l14.6.2zM278.9 134.9c2.1 0 3.8.7 5.3 2.1 1.3 1.5 2 3.3 2 5.3 0 2.1-.7 4-2 5.3-1.3 1.5-3.1 2.1-5.3 2.1s-3.8-.7-5.3-2.1c-1.3-1.5-2-3.3-2-5.3 0-2.1.7-4 2-5.3 1.3-1.3 3.1-2.1 5.3-2.1zM316.1 177.2c-8.4 12-15.3 22.1-21.1 30.3-5.8 8.2-10.4 15-14 20.4-3.6 5.4-6.1 9.7-7.7 13-1.6 3.1-2.3 5.8-2.3 7.7 0 4 1.6 5.9 4.8 5.9 3 0 6.6-1.2 10.6-3.3s8.2-5.1 12.7-8.6 8.7-7.4 13.2-11.9 8.6-8.7 12.4-13c3.8-4.3 7.3-8.6 10.2-12.5 3-4 5.1-7.3 6.4-9.9l1.8 1.2c-1.8 3-4.3 6.8-7.4 10.9-3.1 4.3-6.6 8.6-10.6 13-4 4.5-8.1 8.9-12.5 13.4-4.5 4.5-8.9 8.4-13.4 11.9-4.6 3.5-9.1 6.3-13.4 8.4s-8.2 3.1-11.9 3.1c-4.1 0-7.1-1.2-9.1-3.5s-3-4.8-3-7.6c0-3.1.7-6.6 2.1-10.1 1.5-3.6 3.8-7.9 6.9-13s7.3-11.4 12.4-18.8c5.1-7.4 11.2-16.5 18.3-27.2l14.6.2zM329.3 134.9c2.1 0 3.8.7 5.3 2.1 1.3 1.5 2 3.3 2 5.3 0 2.1-.7 4-2 5.3-1.3 1.5-3.1 2.1-5.3 2.1s-3.8-.7-5.3-2.1c-1.3-1.5-2-3.3-2-5.3 0-2.1.7-4 2-5.3 1.5-1.3 3.2-2.1 5.3-2.1z"/></svg>